<?xml version="1.0" standalone="no"?>
<!DOCTYPE svg PUBLIC "-//W3C//DTD SVG 20010904//EN"
 "http://www.w3.org/TR/2001/REC-SVG-20010904/DTD/svg10.dtd">
<svg version="1.0" xmlns="http://www.w3.org/2000/svg"
 width="500.000000pt" height="500.000000pt" viewBox="0 0 500.000000 500.000000"
 preserveAspectRatio="xMidYMid meet">

<g transform="translate(0.000000,500.000000) scale(0.100000,-0.100000)"
fill="#FFFF" stroke="none">
<path d="M1895 3224 c-57 -30 -92 -63 -114 -109 -21 -45 -21 -50 -19 -629 l3
-583 30 -42 c16 -24 52 -56 80 -72 l50 -29 575 0 575 0 50 29 c28 16 64 48 80
72 l30 42 0 598 0 597 -31 44 c-17 23 -53 55 -80 70 l-49 28 -575 0 c-502 0
-579 -2 -605 -16z m450 -299 c-69 -70 -85 -129 -66 -241 13 -76 9 -99 -15 -90
-8 3 -14 2 -14 -3 0 -9 36 -36 80 -59 39 -21 90 -62 90 -73 0 -15 -32 -10 -52
8 -10 9 -33 22 -51 29 -18 6 -40 15 -49 18 -12 6 -16 3 -14 -10 2 -11 19 -21
51 -29 26 -7 55 -22 64 -33 14 -19 18 -19 35 -6 11 7 32 14 48 14 21 0 28 5
28 20 0 11 7 20 15 20 12 0 15 -15 16 -67 2 -65 2 -66 8 -21 8 56 9 57 55 65
l36 6 0 -52 c0 -29 5 -62 12 -74 7 -12 13 -32 13 -45 1 -12 6 -26 10 -30 5 -4
5 2 1 13 -6 17 -3 16 17 -5 14 -14 23 -27 21 -29 -2 -2 5 -16 16 -31 11 -15
17 -30 13 -34 -3 -3 0 -6 8 -6 22 0 -20 -25 -81 -47 -30 -12 -78 -22 -105 -24
l-50 -4 2 85 c1 93 3 110 12 110 4 0 7 12 8 28 2 24 -1 22 -22 -18 -21 -39
-24 -59 -25 -143 0 -74 -3 -98 -12 -95 -7 3 -16 20 -19 39 -4 19 -7 27 -8 18
-1 -14 -7 -15 -33 -9 -80 18 -104 35 -115 81 l-11 44 -1 -65 c-1 -57 -3 -63
-16 -49 -9 9 -18 43 -22 85 -5 64 -9 72 -49 116 -24 25 -45 41 -47 35 -3 -11
2 -19 55 -80 15 -18 28 -43 27 -57 0 -23 -6 -19 -59 37 -79 84 -104 160 -98
298 3 85 7 101 43 171 50 99 117 166 208 210 39 19 77 34 83 34 7 0 -12 -25
-41 -55z m275 24 c81 -41 130 -117 130 -204 0 -66 -27 -123 -80 -168 -49 -41
-93 -57 -160 -57 -192 1 -299 251 -163 381 21 20 49 43 63 50 59 30 149 30
210 -2z m126 -37 c176 -114 246 -349 162 -545 -18 -40 -23 -47 -32 -34 -109
154 -111 156 -144 163 -46 9 -50 29 -15 67 56 60 73 195 35 279 -11 24 -34 58
-52 76 -43 43 -26 41 46 -6z m-81 -403 c4 -11 4 -23 1 -27 -10 -9 -39 25 -32
37 11 17 24 13 31 -10z m59 -35 c17 -6 146 -180 187 -251 22 -39 22 -41 6 -67
-23 -34 -74 -36 -104 -3 -36 39 -173 244 -173 258 1 18 20 43 45 57 24 14 20
13 39 6z"/>
<path d="M2220 2788 l1 -33 14 25 c18 32 18 40 0 40 -10 0 -15 -10 -15 -32z"/>
<path d="M2142 2528 c2 -91 2 -92 5 -20 3 60 7 73 18 68 16 -6 19 3 9 28 -3 9
-12 16 -20 16 -11 0 -14 -19 -12 -92z"/>
<path d="M2222 2590 c0 -14 2 -19 5 -12 2 6 2 18 0 25 -3 6 -5 1 -5 -13z"/>
<path d="M2221 2524 c0 -11 3 -14 6 -6 3 7 2 16 -1 19 -3 4 -6 -2 -5 -13z"/>
<path d="M2101 2494 c0 -11 3 -14 6 -6 3 7 2 16 -1 19 -3 4 -6 -2 -5 -13z"/>
<path d="M2182 2438 c7 -19 35 -21 41 -3 5 11 0 15 -19 15 -16 0 -24 -5 -22
-12z"/>
<path d="M2390 2396 c0 -27 20 -67 30 -61 5 3 14 14 20 25 8 15 7 17 -10 13
-14 -4 -20 0 -20 10 0 9 -4 19 -10 22 -5 3 -10 -1 -10 -9z"/>
<path d="M2285 2368 c8 -21 35 -32 49 -18 7 7 4 10 -10 10 -11 0 -26 6 -33 13
-10 10 -11 9 -6 -5z"/>
<path d="M2541 2251 c-9 -6 -6 -14 14 -29 29 -23 51 -17 73 19 10 15 8 17 -8
16 -10 -1 -21 -9 -23 -19 -6 -21 -27 -24 -27 -4 0 19 -13 27 -29 17z"/>
<path d="M2419 2927 c-58 -31 -98 -88 -105 -153 -5 -42 -2 -62 19 -106 93
-205 387 -144 387 79 0 64 -20 113 -61 147 -72 61 -164 73 -240 33z m214 -67
c54 -39 73 -85 62 -157 -12 -78 -92 -142 -180 -143 -44 0 -91 20 -88 38 2 6
-4 9 -11 6 -16 -6 -39 29 -28 41 4 5 2 5 -4 2 -13 -8 -27 19 -19 34 4 5 0 6
-8 3 -28 -10 -36 84 -13 141 10 22 22 35 33 35 10 0 37 9 58 21 60 31 136 23
198 -21z"/>
<path d="M2528 2827 c-25 -10 -39 -27 -22 -27 15 0 90 24 99 32 13 12 -45 8
-77 -5z"/>
<path d="M2359 2826 c-2 -2 -2 -31 0 -63 4 -49 6 -53 12 -28 14 63 8 111 -12
91z"/>
<path d="M2562 2771 c-11 -6 -10 -10 4 -15 21 -8 84 3 84 15 0 11 -71 11 -88
0z"/>
<path d="M2432 2693 c0 -43 3 -62 5 -43 2 19 8 45 14 56 13 26 9 56 -8 62 -10
3 -13 -16 -11 -75z"/>
<path d="M2494 2665 c0 -55 1 -76 3 -47 2 29 2 74 0 100 -2 26 -3 2 -3 -53z"/>
<path d="M2587 2716 c-4 -9 -15 -16 -25 -16 -22 0 -34 -9 -26 -21 3 -5 17 -3
32 4 15 8 42 14 61 16 18 1 41 6 50 11 12 7 7 9 -21 10 -20 0 -43 3 -51 6 -8
3 -17 -2 -20 -10z"/>
<path d="M2568 2643 c-22 -6 -23 -19 -3 -27 17 -6 60 8 70 23 6 11 -32 13 -67
4z"/>
<path d="M2850 2571 c-14 -4 -25 -13 -25 -21 0 -22 -22 -23 -28 0 -3 11 -12
20 -21 20 -13 0 -15 -4 -7 -19 15 -27 41 -34 61 -16 9 8 21 15 27 15 6 0 13 7
17 15 3 8 4 15 3 14 -1 -1 -13 -4 -27 -8z"/>
</g>
</svg>
